<svg xmlns="http://www.w3.org/2000/svg" xmlns:xlink="http://www.w3.org/1999/xlink" viewBox="0 0 188 59" version="1.1" width="100px" height="32px">
    <!-- Generator: Sketch 52.6 (67491) - http://www.bohemiancoding.com/sketch -->
    <title>dell</title>
    <desc>Created with Sketch.</desc>
    <g id="dell" stroke="none" stroke-width="1" fill="none" fill-rule="evenodd" fill-color-id="-1" stroke-color-id="-1" recolor-fill="true" recolor-stroke="true">
        <g fill="#FFFFFFFF" fill-rule="nonzero" id="Shape" fill-color-id="0" stroke-color-id="-1" recolor-fill="true" recolor-stroke="true">
            <path d="M0.834,3.304 L23.584,3.304 L26.078,3.408 L28.467,3.616 L30.753,4.135 L32.935,4.655 L34.908,5.486 L36.778,6.317 L38.544,7.356 L40.206,8.499 L41.661,9.746 L43.115,11.096 L44.362,12.551 L45.504,14.109 L46.439,15.771 L47.374,17.434 L48.101,19.2 L48.725,20.966 L81.03,0.188 L92.768,8.083 L67.629,24.288 L71.68,26.989 L97.027,10.888 L107.933,18.159 L82.899,34.676 L87.158,37.273 L112.607,21.068 L112.607,3.304 L131.306,3.304 L131.306,38.727 L147.927,38.727 L147.927,55.347 L112.607,55.347 L112.607,38.311 L81.133,58.568 L49.034,36.857 L48.41,38.727 L47.787,40.493 L46.852,42.259 L45.917,44.026 L44.774,45.584 L43.527,47.143 L42.177,48.597 L40.619,49.843 L39.061,51.09 L37.191,52.129 L35.321,53.064 L33.243,53.895 L31.061,54.518 L28.776,54.933 L26.387,55.245 L23.79,55.349 L0.834,55.349 L0.834,3.304 Z M18.702,19.613 L18.702,38.73 L23.584,38.73 L25.662,38.522 L27.532,37.899 L29.09,36.963 L30.337,35.717 L31.376,34.262 L32.103,32.704 L32.518,30.937 L32.622,29.171 L32.518,27.405 L32.103,25.639 L31.376,24.08 L30.44,22.626 L29.09,21.379 L27.532,20.444 L25.766,19.821 L23.584,19.613 L18.702,19.613 Z M152.602,3.304 L171.405,3.304 L171.405,38.727 L187.923,38.727 L187.923,55.347 L152.603,55.347 L152.603,3.304 L152.602,3.304 Z" fill-color-id="0" stroke-color-id="-1" recolor-fill="true" recolor-stroke="true" fill="#FFFFFFFF"/>
        </g>
    </g>
</svg>