<svg xmlns="http://www.w3.org/2000/svg" xmlns:xlink="http://www.w3.org/1999/xlink" viewBox="0 0 465 782" version="1.1" width="250px" height="421px">
    <!-- Generator: Sketch 52.6 (67491) - http://www.bohemiancoding.com/sketch -->
    <title>hp</title>
    <desc>Created with Sketch.</desc>
    <g id="Page-1" stroke="undefined" stroke-width="1" fill="#FFFFFFFF" fill-rule="evenodd" fill-color-id="0" stroke-color-id="0" recolor-fill="true" recolor-stroke="true">
        <g id="hp" fill="#FFFFFFFF" fill-rule="nonzero" fill-color-id="0" stroke-color-id="0" recolor-fill="true" recolor-stroke="true" stroke="undefined">
            <path d="M112.8,2.3 L0.7,482.8 C0.3,484.7 1.7,486.5 3.6,486.5 L50.9,486.5 C52.3,486.5 53.5,485.5 53.8,484.2 L165.4,3.7 C165.8,1.8 164.4,5.68434189e-14 162.5,5.68434189e-14 L115.7,5.68434189e-14 C114.3,5.68434189e-14 113.1,1 112.8,2.3 Z M166.5,298 L123.4,482.8 C123,484.7 124.4,486.5 126.3,486.5 L173.6,486.5 C175,486.5 176.2,485.5 176.5,484.2 L219.4,299.4 C219.8,297.5 218.4,295.7 216.5,295.7 L169.4,295.7 C168,295.7 166.8,296.6 166.5,298 Z M180.4,781.9 L227.7,781.9 C229.1,781.9 230.3,780.9 230.6,779.6 L342.1,299.3 C342.5,297.4 341.1,295.6 339.2,295.6 L292.4,295.6 C291,295.6 289.8,296.6 289.5,297.9 L177.5,778.2 C177.1,780.1 178.5,781.9 180.4,781.9 Z M411.8,298 L368.7,482.8 C368.3,484.7 369.7,486.5 371.6,486.5 L418.9,486.5 C420.3,486.5 421.5,485.5 421.8,484.2 L464.7,299.4 C465.1,297.5 463.7,295.7 461.8,295.7 L414.7,295.7 C413.3,295.7 412.1,296.6 411.8,298 Z" id="Shape" fill-color-id="0" stroke-color-id="0" recolor-fill="true" recolor-stroke="true" fill="#FFFFFFFF" stroke="undefined"/>
        </g>
    </g>
</svg>